<mxfile host="app.diagrams.net" modified="2023-09-04T08:59:11.308Z" agent="Mozilla/5.0 (Macintosh; Intel Mac OS X 10_15_7) AppleWebKit/537.36 (KHTML, like Gecko) Chrome/116.0.0.0 Safari/537.36" version="21.6.2" etag="B8vXWDkK4DHsZP-NkH32" type="github">
  <diagram name="Page-1" id="SZn0HHA8C5nWGWxfWxaD">
    <mxGraphModel>
      <root>
        <mxCell id="0" />
        <mxCell id="1" parent="0" />
      </root>
    </mxGraphModel>
  </diagram>
</mxfile>
